<?xml version="1.0" encoding="UTF-8"?><svg id="Layer_1" xmlns="http://www.w3.org/2000/svg" xmlns:xlink="http://www.w3.org/1999/xlink" viewBox="0 0 385.13 115.94"><defs><linearGradient id="linear-gradient" x1="30.77" y1="42.78" x2="42.73" y2="68.65" gradientUnits="userSpaceOnUse"><stop offset=".33" stop-color="#6b8e75"/><stop offset=".75" stop-color="#327f70"/><stop offset="1" stop-color="#0f766e"/></linearGradient></defs><path d="M137.58,66.61c3.78,0,7.19.33,10.25.98,0,.03.12.63.37,1.81s.48,2.34.71,3.49c.23,1.16.34,1.81.34,1.98,0,.2-.13.37-.39.54-.26.16-.52.24-.78.24-.33,0-.55-.08-.68-.24-.13-.65-.33-1.27-.61-1.86-.28-.59-.74-1.3-1.39-2.15-.65-.85-1.62-1.53-2.9-2.05-1.29-.52-2.81-.78-4.57-.78-3.32,0-5.93,1.35-7.84,4.05-1.9,2.7-2.86,5.89-2.86,9.57,0,2.67.4,5.13,1.2,7.37.8,2.25,2.1,4.13,3.91,5.66,1.81,1.53,3.96,2.29,6.47,2.29s4.65-.72,6.25-2.15c.88-.78,1.6-1.77,2.15-2.95.55-1.19.91-2.16,1.07-2.91.78,0,1.33.16,1.66.49,0,.52-.24,1.81-.73,3.86s-.88,3.17-1.17,3.37c-3.29,1.5-6.82,2.25-10.6,2.25-4.69,0-8.62-1.55-11.79-4.64-3.17-3.09-4.76-6.88-4.76-11.38s1.6-8.63,4.81-11.91c3.21-3.29,7.17-4.93,11.89-4.93Z" fill="#0f766e"/><path d="M167.24,77.6c2.57,0,4.3.84,5.18,2.51.88,1.68,1.32,4.48,1.32,8.42v4.3c0,2.15.1,3.52.29,4.1.1.26.52.46,1.27.61.75.15,1.37.22,1.86.22.1.16.15.44.15.83s-.05.65-.15.78c-2.61-.2-4.59-.29-5.96-.29-1.17,0-3.06.1-5.66.29-.1-.13-.15-.39-.15-.78s.05-.67.15-.83c.46,0,1.02-.07,1.68-.22s1.05-.35,1.15-.61c.2-.59.29-1.95.29-4.1v-4.39c0-2.57-.29-4.45-.86-5.64-.57-1.19-1.62-1.78-3.15-1.78-.85,0-1.8.35-2.86,1.05-1.06.7-1.59,1.25-1.59,1.64v9.13c0,2.15.1,3.52.29,4.1.1.26.5.46,1.2.61s1.28.22,1.73.22c.1.16.15.44.15.83s-.05.65-.15.78c-2.61-.2-4.54-.29-5.81-.29-1.34,0-3.3.1-5.91.29-.1-.13-.15-.39-.15-.78s.05-.67.15-.83c.46,0,1.06-.07,1.81-.22.75-.15,1.17-.35,1.27-.61.23-.68.34-2.05.34-4.1v-20.9c0-1.17-.1-1.99-.29-2.44-.26-.59-1.25-.88-2.98-.88-.03,0-.06-.11-.07-.34-.02-.23-.02-.46,0-.68.02-.23.06-.36.12-.39,3.38-.33,6.1-.96,8.15-1.9.13,0,.27.09.41.27.15.18.22.35.22.51-.33,1.5-.49,3.03-.49,4.59v10.55c0,.13.02.2.05.2.03,0,.11-.06.24-.2.68-.78,1.72-1.58,3.1-2.39,1.38-.81,2.6-1.22,3.64-1.22Z" fill="#0f766e"/><path d="M188.7,77.6c1.76,0,3.26.67,4.49,2,1.24,1.33,1.86,3.01,1.86,5.03v9.62c0,1.43.44,2.15,1.32,2.15.29,0,.8-.18,1.51-.54.16.03.24.23.24.59,0,.33-.06.6-.2.83-.49.46-1.16.94-2.03,1.44-.86.5-1.64.76-2.32.76s-1.41-.29-2.07-.88c-.67-.59-1.1-1.24-1.29-1.95-.39.39-1.26.98-2.61,1.76-1.35.78-2.4,1.17-3.15,1.17-1.69,0-3.12-.58-4.3-1.73-1.17-1.16-1.76-2.5-1.76-4.03,0-.91.26-1.73.78-2.47s1.11-1.21,1.76-1.44c2.73-.94,5.66-2.03,8.79-3.27.2-.23.29-.6.29-1.12v-1.27c0-1.2-.35-2.3-1.05-3.3-.7-.99-1.54-1.49-2.52-1.49-.81,0-1.42.3-1.83.9-.41.6-.72,1.47-.95,2.61-.33,1.5-1.16,2.25-2.49,2.25-.59,0-1.08-.21-1.49-.63-.41-.42-.61-.93-.61-1.51,0-.52.16-1.06.49-1.61.81-.78,2.12-1.62,3.91-2.51,1.79-.9,3.53-1.34,5.22-1.34ZM186.9,96.54c.68,0,1.38-.2,2.08-.59.7-.39,1.05-.7,1.05-.93v-6.74c-2.38.91-3.68,1.42-3.91,1.51-1.6.78-2.39,1.95-2.39,3.52,0,.94.33,1.72.98,2.32.65.6,1.38.9,2.2.9Z" fill="#0f766e"/><path d="M214.12,77.6c1.43,0,2.44.37,3.03,1.12.26.52.39,1.14.39,1.86,0,.85-.24,1.59-.73,2.22s-1.01.95-1.56.95c-.23,0-.45-.05-.66-.15-.21-.1-.46-.26-.76-.49-.29-.23-.47-.37-.54-.44-.65-.52-1.24-.78-1.76-.78-.91,0-1.73.53-2.46,1.59-.73,1.06-1.1,1.93-1.1,2.61v6.74c0,2.15.1,3.52.29,4.1.1.26.63.46,1.61.61s1.74.22,2.29.22c.1.16.15.44.15.83s-.05.65-.15.78c-2.6-.2-4.82-.29-6.64-.29-1.43,0-3.45.1-6.05.29-.1-.13-.15-.39-.15-.78s.05-.67.15-.83c.46,0,1.06-.07,1.81-.22s1.17-.35,1.27-.61c.23-.59.34-1.95.34-4.1v-7.42c0-1.73-.11-2.82-.34-3.27-.16-.33-.61-.56-1.34-.71s-1.33-.22-1.78-.22c-.06-.06-.11-.29-.12-.68-.02-.39.02-.62.12-.68,2.99-.29,5.75-1.07,8.25-2.34.13.03.28.15.44.37.16.21.24.37.24.46-.03.2-.11.87-.22,2.03-.12,1.16-.17,1.88-.17,2.17.03.16.11.21.24.15.68-1.33,1.55-2.51,2.59-3.54s2.15-1.54,3.32-1.54Z" fill="#0f766e"/><path d="M226.35,78.18h5.86c.2,0,.29.2.29.59,0,.59-.29,1.11-.88,1.56h-5.27v12.45c0,2.57.96,3.86,2.88,3.86.94,0,1.9-.39,2.88-1.17.16.16.24.34.24.54,0,.36-.1.63-.29.83-1.66,1.79-3.37,2.69-5.13,2.69-1.6,0-2.94-.48-4.03-1.44-1.09-.96-1.63-2.55-1.63-4.76v-12.99h-3.17c-.16-.03-.24-.21-.24-.54.16-.29.63-.83,1.42-1.61h2v-2.83c.36-.36,1.69-1.76,4-4.2.13-.1.28-.16.44-.2.16-.03.31-.03.44,0,.13.03.2.08.2.15v7.08Z" fill="#0f766e"/><path d="M238.93,87.22c-.03,2.96.72,5.16,2.25,6.59,1.53,1.43,3.26,2.15,5.18,2.15,2.15,0,3.97-.83,5.47-2.49.33.1.49.36.49.78,0,.29-.08.6-.24.93-.65,1.01-1.68,1.99-3.08,2.95-1.4.96-3.03,1.44-4.88,1.44-2.87,0-5.26-.94-7.18-2.83-1.92-1.89-2.88-4.33-2.88-7.32s1.07-5.83,3.22-8.23,4.49-3.59,7.03-3.59c1.43,0,2.7.24,3.81.73s1.94,1.12,2.49,1.88c.55.77.96,1.51,1.22,2.25s.39,1.44.39,2.12c0,1.43-.41,2.17-1.22,2.2-1.86.16-5.88.31-12.06.44ZM239.12,85.36c3.65,0,6.02-.06,7.13-.2.59,0,.88-.33.88-.98,0-1.07-.29-2.13-.88-3.17-.59-1.04-1.46-1.56-2.64-1.56-.81,0-1.54.26-2.17.78-.63.52-1.11,1.15-1.42,1.88-.31.73-.54,1.39-.68,1.98s-.22,1.01-.22,1.27Z" fill="#0f766e"/><path d="M269.28,77.6c1.43,0,2.44.37,3.03,1.12.26.52.39,1.14.39,1.86,0,.85-.24,1.59-.73,2.22s-1.01.95-1.56.95c-.23,0-.45-.05-.66-.15s-.46-.26-.76-.49c-.29-.23-.47-.37-.54-.44-.65-.52-1.24-.78-1.76-.78-.91,0-1.73.53-2.47,1.59-.73,1.06-1.1,1.93-1.1,2.61v6.74c0,2.15.1,3.52.29,4.1.1.26.63.46,1.61.61s1.74.22,2.29.22c.1.16.15.44.15.83s-.05.65-.15.78c-2.61-.2-4.82-.29-6.64-.29-1.43,0-3.45.1-6.05.29-.1-.13-.15-.39-.15-.78s.05-.67.15-.83c.46,0,1.06-.07,1.81-.22.75-.15,1.17-.35,1.27-.61.23-.59.34-1.95.34-4.1v-7.42c0-1.73-.12-2.82-.34-3.27-.16-.33-.61-.56-1.34-.71s-1.33-.22-1.78-.22c-.07-.06-.11-.29-.12-.68s.03-.62.12-.68c2.99-.29,5.74-1.07,8.25-2.34.13.03.28.15.44.37.16.21.24.37.24.46-.03.2-.11.87-.22,2.03-.11,1.16-.17,1.88-.17,2.17.03.16.11.21.24.15.68-1.33,1.54-2.51,2.59-3.54,1.04-1.03,2.15-1.54,3.32-1.54Z" fill="#0f766e"/><path d="M288.77,66.56c.68,0,1.38.04,2.07.12.7.08,1.27.18,1.71.29.44.11,1.09.27,1.95.46s1.55.36,2.08.49c.23,1.86.41,4.36.54,7.52-.03.23-.21.34-.54.34-.85,0-1.3-.15-1.37-.44-.2-1.56-.9-3.09-2.1-4.59-1.21-1.5-2.67-2.25-4.39-2.25-1.53,0-2.7.42-3.52,1.27-.81.85-1.22,2-1.22,3.47,0,.39.04.76.12,1.1s.22.69.42,1.05c.2.36.37.67.54.93.16.26.43.56.8.9s.66.6.86.78c.2.18.54.44,1.05.78s.84.58,1,.71c.16.13.53.38,1.1.76.57.37.92.59,1.05.66.16.1.57.36,1.22.78.65.42,1.11.72,1.39.9.28.18.7.48,1.27.9.57.42.99.79,1.27,1.1.28.31.63.71,1.05,1.2.42.49.73.96.93,1.42.2.46.37.98.51,1.59.15.6.22,1.23.22,1.88,0,2.6-1.05,4.75-3.15,6.45-2.1,1.69-4.52,2.54-7.25,2.54-1.95,0-4.98-.46-9.08-1.37-.59-2.8-.95-5.44-1.07-7.91.06-.13.27-.27.61-.42s.59-.22.76-.22c.32,0,.52.15.59.44.13.65.36,1.37.68,2.15.32.78.79,1.6,1.39,2.44.6.85,1.42,1.55,2.47,2.1,1.04.55,2.2.83,3.47.83,1.46,0,2.71-.46,3.73-1.37,1.03-.91,1.54-2.21,1.54-3.91,0-.52-.07-1.02-.2-1.49-.13-.47-.36-.93-.68-1.37-.33-.44-.6-.8-.83-1.07-.23-.28-.64-.63-1.25-1.05-.6-.42-1.01-.71-1.22-.85s-.68-.44-1.39-.88c-.72-.44-1.14-.69-1.27-.76-1.34-.85-2.29-1.47-2.88-1.88-.59-.41-1.35-1.04-2.29-1.9-.95-.86-1.62-1.77-2.03-2.73-.41-.96-.61-2.03-.61-3.2,0-2.47,1.01-4.54,3.03-6.2,2.02-1.66,4.33-2.49,6.93-2.49Z" fill="#fbbf24"/><path d="M305.62,87.22c-.03,2.96.72,5.16,2.25,6.59,1.53,1.43,3.26,2.15,5.18,2.15,2.15,0,3.97-.83,5.47-2.49.33.1.49.36.49.78,0,.29-.08.6-.24.93-.65,1.01-1.68,1.99-3.08,2.95-1.4.96-3.03,1.44-4.88,1.44-2.87,0-5.26-.94-7.18-2.83-1.92-1.89-2.88-4.33-2.88-7.32s1.07-5.83,3.22-8.23,4.49-3.59,7.03-3.59c1.43,0,2.7.24,3.81.73s1.94,1.12,2.49,1.88c.55.77.96,1.51,1.22,2.25s.39,1.44.39,2.12c0,1.43-.41,2.17-1.22,2.2-1.86.16-5.88.31-12.06.44ZM305.81,85.36c3.65,0,6.02-.06,7.13-.2.59,0,.88-.33.88-.98,0-1.07-.29-2.13-.88-3.17-.59-1.04-1.46-1.56-2.64-1.56-.81,0-1.54.26-2.17.78-.63.52-1.11,1.15-1.42,1.88-.31.73-.54,1.39-.68,1.98s-.22,1.01-.22,1.27Z" fill="#fbbf24"/><path d="M323.2,71.93c0-1.17-.1-1.99-.29-2.44-.26-.59-1.25-.88-2.98-.88-.03,0-.06-.11-.07-.34-.02-.23-.02-.46,0-.68.02-.23.06-.36.12-.39,3.38-.33,6.1-.96,8.15-1.9.13,0,.27.09.42.27.15.18.22.35.22.51-.33,1.5-.49,3.03-.49,4.59v22.17c0,2.15.1,3.52.29,4.1.1.26.51.46,1.25.61s1.34.22,1.83.22c.1.16.15.44.15.83s-.05.65-.15.78c-2.6-.2-4.59-.29-5.96-.29s-3.3.1-5.91.29c-.1-.13-.15-.39-.15-.78s.05-.67.15-.83c.46,0,1.06-.07,1.81-.22s1.17-.35,1.27-.61c.23-.68.34-2.05.34-4.1v-20.9Z" fill="#fbbf24"/><path d="M337.36,87.22c-.03,2.96.72,5.16,2.25,6.59,1.53,1.43,3.26,2.15,5.18,2.15,2.15,0,3.97-.83,5.47-2.49.33.1.49.36.49.78,0,.29-.08.6-.24.93-.65,1.01-1.68,1.99-3.08,2.95-1.4.96-3.03,1.44-4.88,1.44-2.87,0-5.26-.94-7.18-2.83-1.92-1.89-2.88-4.33-2.88-7.32s1.07-5.83,3.22-8.23,4.49-3.59,7.03-3.59c1.43,0,2.7.24,3.81.73s1.94,1.12,2.49,1.88c.55.77.96,1.51,1.22,2.25s.39,1.44.39,2.12c0,1.43-.41,2.17-1.22,2.2-1.86.16-5.88.31-12.06.44ZM337.56,85.36c3.65,0,6.02-.06,7.13-.2.59,0,.88-.33.88-.98,0-1.07-.29-2.13-.88-3.17-.59-1.04-1.46-1.56-2.64-1.56-.81,0-1.54.26-2.17.78-.63.52-1.11,1.15-1.42,1.88-.31.73-.54,1.39-.68,1.98s-.22,1.01-.22,1.27Z" fill="#fbbf24"/><path d="M369.94,80.43c0,.78-.23,1.42-.68,1.93-.46.5-1.01.76-1.66.76-.36,0-.69-.1-1-.29s-.67-.51-1.07-.95-.66-.69-.76-.76c-.98-.81-2-1.22-3.08-1.22-1.17,0-2.21.74-3.1,2.22-.89,1.48-1.34,3.23-1.34,5.25,0,2.9.71,5.05,2.15,6.45,1.43,1.4,3.21,2.1,5.32,2.1s3.86-.81,5.32-2.44c.32.1.49.36.49.78,0,.36-.07.67-.2.93-.65.98-1.69,1.95-3.1,2.93s-3.05,1.46-4.91,1.46c-2.83,0-5.22-.95-7.15-2.86s-2.9-4.29-2.9-7.15c0-3.19,1.29-5.99,3.86-8.4,2.57-2.41,5.39-3.61,8.45-3.61,2.12,0,3.68.34,4.69,1.03.46.52.68,1.14.68,1.86Z" fill="#fbbf24"/><path d="M378.98,78.18h5.86c.2,0,.29.2.29.59,0,.59-.29,1.11-.88,1.56h-5.27v12.45c0,2.57.96,3.86,2.88,3.86.94,0,1.9-.39,2.88-1.17.16.16.24.34.24.54,0,.36-.1.63-.29.83-1.66,1.79-3.37,2.69-5.13,2.69-1.6,0-2.94-.48-4.03-1.44-1.09-.96-1.63-2.55-1.63-4.76v-12.99h-3.17c-.16-.03-.24-.21-.24-.54.16-.29.63-.83,1.42-1.61h2v-2.83c.36-.36,1.69-1.76,4-4.2.13-.1.28-.16.44-.2.16-.03.31-.03.44,0,.13.03.2.08.2.15v7.08Z" fill="#fbbf24"/><path d="M33.39,71.5c-.08.24-.11.49-.1.73.35,6.6,20.21,10.53,17.78,14.98-2.43,4.46-29.87,18.88-29.87,18.88-8.35-4.38-14.02-11.22-17.65-17.12-.9-1.47-1.67-2.87-2.33-4.17-2.17-4.27-1.38-9.35,1.93-12.89l19.46-20.7c1-1.06,2.66-1.15,3.77-.2l4.71,4.01,19.69-20.01c1.22-1.21,3.18-1.22,4.43-.04l17.27,16.5,2.67-2.15c.53-.42,1.3-.37,1.76.13l11.98,13.06c-23.57-3.95-53.65,2.61-55.5,8.99Z" fill="#0f766e"/><path d="M50.89,73.49l.03.06c.32.81,1.02,1.41,1.87,1.61,4.79,1.17,20.73,5.83,20.41,15.96-.38,11.92-17.02,24.78-17.02,24.78,0,0,36.31,2.57,48.62-37.26.36-1.17-.07-2.45-1.06-3.18-5.59-4.17-25.25-16.41-51.38-5.46-1.35.57-2.01,2.12-1.46,3.48Z" fill="#0f766e"/><path d="M88.89,62.51c-23.57-3.95-53.65,2.61-55.5,8.99-14.42,5.59-25.96,14.33-29.84,17.47-.9-1.47-1.67-2.87-2.33-4.17-2.17-4.27-1.38-9.35,1.93-12.89l19.46-20.7c1-1.06,2.66-1.15,3.77-.2l4.71,4.01,19.69-20.01c1.22-1.21,3.18-1.22,4.43-.04l17.27,16.5,2.67-2.15c.53-.42,1.3-.37,1.76.13l11.98,13.06Z" fill="url(#linear-gradient)"/><path d="M103.76,53.47c0,.59-.01,1.18-.03,1.76-3.1-26.43-24.66-46.9-50.79-46.9S6.55,27.58,2.48,52.84C2.79,23.59,25.34,0,53.11,0s50.65,23.93,50.65,53.47Z" fill="#fbbf24"/></svg>