<?xml version="1.0" encoding="UTF-8"?><svg id="Layer_1" xmlns="http://www.w3.org/2000/svg" xmlns:xlink="http://www.w3.org/1999/xlink" viewBox="0 0 104.91 115.94"><defs><linearGradient id="linear-gradient" x1="30.77" y1="42.78" x2="42.73" y2="68.65" gradientUnits="userSpaceOnUse"><stop offset=".33" stop-color="#6b8e75"/><stop offset=".75" stop-color="#327f70"/><stop offset="1" stop-color="#0f766e"/></linearGradient></defs><path d="M33.39,71.5c-.08.24-.11.49-.1.73.35,6.6,20.21,10.53,17.78,14.98-2.43,4.46-29.87,18.88-29.87,18.88-8.35-4.38-14.02-11.22-17.65-17.12-.9-1.47-1.67-2.87-2.33-4.17-2.17-4.27-1.38-9.35,1.93-12.89l19.46-20.7c1-1.06,2.66-1.15,3.77-.2l4.71,4.01,19.69-20.01c1.22-1.21,3.18-1.22,4.43-.04l17.27,16.5,2.67-2.15c.53-.42,1.3-.37,1.76.13l11.98,13.06c-23.57-3.95-53.65,2.61-55.5,8.99Z" fill="#0f766e"/><path d="M50.89,73.49l.03.06c.32.81,1.02,1.41,1.87,1.61,4.79,1.17,20.73,5.83,20.41,15.96-.38,11.92-17.02,24.78-17.02,24.78,0,0,36.31,2.57,48.62-37.26.36-1.17-.07-2.45-1.06-3.18-5.59-4.17-25.25-16.41-51.38-5.46-1.35.57-2.01,2.12-1.46,3.48Z" fill="#0f766e"/><path d="M88.89,62.51c-23.57-3.95-53.65,2.61-55.5,8.99-14.42,5.59-25.96,14.33-29.84,17.47-.9-1.47-1.67-2.87-2.33-4.17-2.17-4.27-1.38-9.35,1.93-12.89l19.46-20.7c1-1.06,2.66-1.15,3.77-.2l4.71,4.01,19.69-20.01c1.22-1.21,3.18-1.22,4.43-.04l17.27,16.5,2.67-2.15c.53-.42,1.3-.37,1.76.13l11.98,13.06Z" fill="url(#linear-gradient)"/><path d="M103.76,53.47c0,.59-.01,1.18-.03,1.76-3.1-26.43-24.66-46.9-50.79-46.9S6.55,27.58,2.48,52.84C2.79,23.59,25.34,0,53.11,0s50.65,23.93,50.65,53.47Z" fill="#fbbf24"/></svg>