<?xml version="1.0" encoding="UTF-8"?><svg id="Layer_1" xmlns="http://www.w3.org/2000/svg" xmlns:xlink="http://www.w3.org/1999/xlink" viewBox="0 0 385.13 164.68"><defs><linearGradient id="linear-gradient" x1="30.77" y1="42.78" x2="42.73" y2="68.65" gradientUnits="userSpaceOnUse"><stop offset=".33" stop-color="#6b8e75"/><stop offset=".75" stop-color="#327f70"/><stop offset="1" stop-color="#0f766e"/></linearGradient></defs><path d="M137.58,66.61c3.78,0,7.19.33,10.25.98,0,.03.12.63.37,1.81s.48,2.34.71,3.49c.23,1.16.34,1.81.34,1.98,0,.2-.13.37-.39.54-.26.16-.52.24-.78.24-.33,0-.55-.08-.68-.24-.13-.65-.33-1.27-.61-1.86-.28-.59-.74-1.3-1.39-2.15-.65-.85-1.62-1.53-2.9-2.05-1.29-.52-2.81-.78-4.57-.78-3.32,0-5.93,1.35-7.84,4.05-1.9,2.7-2.86,5.89-2.86,9.57,0,2.67.4,5.13,1.2,7.37.8,2.25,2.1,4.13,3.91,5.66,1.81,1.53,3.96,2.29,6.47,2.29s4.65-.72,6.25-2.15c.88-.78,1.6-1.77,2.15-2.95.55-1.19.91-2.16,1.07-2.91.78,0,1.33.16,1.66.49,0,.52-.24,1.81-.73,3.86s-.88,3.17-1.17,3.37c-3.29,1.5-6.82,2.25-10.6,2.25-4.69,0-8.62-1.55-11.79-4.64-3.17-3.09-4.76-6.88-4.76-11.38s1.6-8.63,4.81-11.91c3.21-3.29,7.17-4.93,11.89-4.93Z" fill="#0f766e"/><path d="M167.24,77.6c2.57,0,4.3.84,5.18,2.51.88,1.68,1.32,4.48,1.32,8.42v4.3c0,2.15.1,3.52.29,4.1.1.26.52.46,1.27.61.75.15,1.37.22,1.86.22.1.16.15.44.15.83s-.05.65-.15.78c-2.61-.2-4.59-.29-5.96-.29-1.17,0-3.06.1-5.66.29-.1-.13-.15-.39-.15-.78s.05-.67.15-.83c.46,0,1.02-.07,1.68-.22s1.05-.35,1.15-.61c.2-.59.29-1.95.29-4.1v-4.39c0-2.57-.29-4.45-.86-5.64-.57-1.19-1.62-1.78-3.15-1.78-.85,0-1.8.35-2.86,1.05-1.06.7-1.59,1.25-1.59,1.64v9.13c0,2.15.1,3.52.29,4.1.1.26.5.46,1.2.61s1.28.22,1.73.22c.1.16.15.44.15.83s-.05.65-.15.78c-2.61-.2-4.54-.29-5.81-.29-1.34,0-3.3.1-5.91.29-.1-.13-.15-.39-.15-.78s.05-.67.15-.83c.46,0,1.06-.07,1.81-.22.75-.15,1.17-.35,1.27-.61.23-.68.34-2.05.34-4.1v-20.9c0-1.17-.1-1.99-.29-2.44-.26-.59-1.25-.88-2.98-.88-.03,0-.06-.11-.07-.34-.02-.23-.02-.46,0-.68.02-.23.06-.36.12-.39,3.38-.33,6.1-.96,8.15-1.9.13,0,.27.09.41.27.15.18.22.35.22.51-.33,1.5-.49,3.03-.49,4.59v10.55c0,.13.02.2.05.2.03,0,.11-.06.24-.2.68-.78,1.72-1.58,3.1-2.39,1.38-.81,2.6-1.22,3.64-1.22Z" fill="#0f766e"/><path d="M188.7,77.6c1.76,0,3.26.67,4.49,2,1.24,1.33,1.86,3.01,1.86,5.03v9.62c0,1.43.44,2.15,1.32,2.15.29,0,.8-.18,1.51-.54.16.03.24.23.24.59,0,.33-.06.6-.2.83-.49.46-1.16.94-2.03,1.44-.86.5-1.64.76-2.32.76s-1.41-.29-2.07-.88c-.67-.59-1.1-1.24-1.29-1.95-.39.39-1.26.98-2.61,1.76-1.35.78-2.4,1.17-3.15,1.17-1.69,0-3.12-.58-4.3-1.73-1.17-1.16-1.76-2.5-1.76-4.03,0-.91.26-1.73.78-2.47s1.11-1.21,1.76-1.44c2.73-.94,5.66-2.03,8.79-3.27.2-.23.29-.6.29-1.12v-1.27c0-1.2-.35-2.3-1.05-3.3-.7-.99-1.54-1.49-2.52-1.49-.81,0-1.42.3-1.83.9-.41.6-.72,1.47-.95,2.61-.33,1.5-1.16,2.25-2.49,2.25-.59,0-1.08-.21-1.49-.63-.41-.42-.61-.93-.61-1.51,0-.52.16-1.06.49-1.61.81-.78,2.12-1.62,3.91-2.51,1.79-.9,3.53-1.34,5.22-1.34ZM186.9,96.54c.68,0,1.38-.2,2.08-.59.7-.39,1.05-.7,1.05-.93v-6.74c-2.38.91-3.68,1.42-3.91,1.51-1.6.78-2.39,1.95-2.39,3.52,0,.94.33,1.72.98,2.32.65.6,1.38.9,2.2.9Z" fill="#0f766e"/><path d="M214.12,77.6c1.43,0,2.44.37,3.03,1.12.26.52.39,1.14.39,1.86,0,.85-.24,1.59-.73,2.22s-1.01.95-1.56.95c-.23,0-.45-.05-.66-.15-.21-.1-.46-.26-.76-.49-.29-.23-.47-.37-.54-.44-.65-.52-1.24-.78-1.76-.78-.91,0-1.73.53-2.46,1.59-.73,1.06-1.1,1.93-1.1,2.61v6.74c0,2.15.1,3.52.29,4.1.1.26.63.46,1.61.61s1.74.22,2.29.22c.1.16.15.44.15.83s-.05.65-.15.78c-2.6-.2-4.82-.29-6.64-.29-1.43,0-3.45.1-6.05.29-.1-.13-.15-.39-.15-.78s.05-.67.15-.83c.46,0,1.06-.07,1.81-.22s1.17-.35,1.27-.61c.23-.59.34-1.95.34-4.1v-7.42c0-1.73-.11-2.82-.34-3.27-.16-.33-.61-.56-1.34-.71s-1.33-.22-1.78-.22c-.06-.06-.11-.29-.12-.68-.02-.39.02-.62.12-.68,2.99-.29,5.75-1.07,8.25-2.34.13.03.28.15.44.37.16.21.24.37.24.46-.03.2-.11.87-.22,2.03-.12,1.16-.17,1.88-.17,2.17.03.16.11.21.24.15.68-1.33,1.55-2.51,2.59-3.54s2.15-1.54,3.32-1.54Z" fill="#0f766e"/><path d="M226.35,78.18h5.86c.2,0,.29.2.29.59,0,.59-.29,1.11-.88,1.56h-5.27v12.45c0,2.57.96,3.86,2.88,3.86.94,0,1.9-.39,2.88-1.17.16.16.24.34.24.54,0,.36-.1.63-.29.83-1.66,1.79-3.37,2.69-5.13,2.69-1.6,0-2.94-.48-4.03-1.44-1.09-.96-1.63-2.55-1.63-4.76v-12.99h-3.17c-.16-.03-.24-.21-.24-.54.16-.29.63-.83,1.42-1.61h2v-2.83c.36-.36,1.69-1.76,4-4.2.13-.1.28-.16.44-.2.16-.03.31-.03.44,0,.13.03.2.08.2.15v7.08Z" fill="#0f766e"/><path d="M238.93,87.22c-.03,2.96.72,5.16,2.25,6.59,1.53,1.43,3.26,2.15,5.18,2.15,2.15,0,3.97-.83,5.47-2.49.33.1.49.36.49.78,0,.29-.08.6-.24.93-.65,1.01-1.68,1.99-3.08,2.95-1.4.96-3.03,1.44-4.88,1.44-2.87,0-5.26-.94-7.18-2.83-1.92-1.89-2.88-4.33-2.88-7.32s1.07-5.83,3.22-8.23,4.49-3.59,7.03-3.59c1.43,0,2.7.24,3.81.73s1.94,1.12,2.49,1.88c.55.77.96,1.51,1.22,2.25s.39,1.44.39,2.12c0,1.43-.41,2.17-1.22,2.2-1.86.16-5.88.31-12.06.44ZM239.12,85.36c3.65,0,6.02-.06,7.13-.2.59,0,.88-.33.88-.98,0-1.07-.29-2.13-.88-3.17-.59-1.04-1.46-1.56-2.64-1.56-.81,0-1.54.26-2.17.78-.63.52-1.11,1.15-1.42,1.88-.31.73-.54,1.39-.68,1.98s-.22,1.01-.22,1.27Z" fill="#0f766e"/><path d="M269.28,77.6c1.43,0,2.44.37,3.03,1.12.26.52.39,1.14.39,1.86,0,.85-.24,1.59-.73,2.22s-1.01.95-1.56.95c-.23,0-.45-.05-.66-.15s-.46-.26-.76-.49c-.29-.23-.47-.37-.54-.44-.65-.52-1.24-.78-1.76-.78-.91,0-1.73.53-2.47,1.59-.73,1.06-1.1,1.93-1.1,2.61v6.74c0,2.15.1,3.52.29,4.1.1.26.63.46,1.61.61s1.74.22,2.29.22c.1.16.15.44.15.83s-.05.65-.15.78c-2.61-.2-4.82-.29-6.64-.29-1.43,0-3.45.1-6.05.29-.1-.13-.15-.39-.15-.78s.05-.67.15-.83c.46,0,1.06-.07,1.81-.22.75-.15,1.17-.35,1.27-.61.23-.59.34-1.95.34-4.1v-7.42c0-1.73-.12-2.82-.34-3.27-.16-.33-.61-.56-1.34-.71s-1.33-.22-1.78-.22c-.07-.06-.11-.29-.12-.68s.03-.62.12-.68c2.99-.29,5.74-1.07,8.25-2.34.13.03.28.15.44.37.16.21.24.37.24.46-.03.2-.11.87-.22,2.03-.11,1.16-.17,1.88-.17,2.17.03.16.11.21.24.15.68-1.33,1.54-2.51,2.59-3.54,1.04-1.03,2.15-1.54,3.32-1.54Z" fill="#0f766e"/><path d="M288.77,66.56c.68,0,1.38.04,2.07.12.7.08,1.27.18,1.71.29.44.11,1.09.27,1.95.46s1.55.36,2.08.49c.23,1.86.41,4.36.54,7.52-.03.23-.21.34-.54.34-.85,0-1.3-.15-1.37-.44-.2-1.56-.9-3.09-2.1-4.59-1.21-1.5-2.67-2.25-4.39-2.25-1.53,0-2.7.42-3.52,1.27-.81.85-1.22,2-1.22,3.47,0,.39.04.76.12,1.1s.22.69.42,1.05c.2.36.37.67.54.93.16.26.43.56.8.9s.66.6.86.78c.2.18.54.44,1.05.78s.84.58,1,.71c.16.13.53.38,1.1.76.57.37.92.59,1.05.66.16.1.57.36,1.22.78.65.42,1.11.72,1.39.9.28.18.7.48,1.27.9.57.42.99.79,1.27,1.1.28.31.63.71,1.05,1.2.42.49.73.96.93,1.42.2.46.37.98.51,1.59.15.6.22,1.23.22,1.88,0,2.6-1.05,4.75-3.15,6.45-2.1,1.69-4.52,2.54-7.25,2.54-1.95,0-4.98-.46-9.08-1.37-.59-2.8-.95-5.44-1.07-7.91.06-.13.27-.27.61-.42s.59-.22.76-.22c.32,0,.52.15.59.44.13.65.36,1.37.68,2.15.32.78.79,1.6,1.39,2.44.6.85,1.42,1.55,2.47,2.1,1.04.55,2.2.83,3.47.83,1.46,0,2.71-.46,3.73-1.37,1.03-.91,1.54-2.21,1.54-3.91,0-.52-.07-1.02-.2-1.49-.13-.47-.36-.93-.68-1.37-.33-.44-.6-.8-.83-1.07-.23-.28-.64-.63-1.25-1.05-.6-.42-1.01-.71-1.22-.85s-.68-.44-1.39-.88c-.72-.44-1.14-.69-1.27-.76-1.34-.85-2.29-1.47-2.88-1.88-.59-.41-1.35-1.04-2.29-1.9-.95-.86-1.62-1.77-2.03-2.73-.41-.96-.61-2.03-.61-3.2,0-2.47,1.01-4.54,3.03-6.2,2.02-1.66,4.33-2.49,6.93-2.49Z" fill="#fbbf24"/><path d="M305.62,87.22c-.03,2.96.72,5.16,2.25,6.59,1.53,1.43,3.26,2.15,5.18,2.15,2.15,0,3.97-.83,5.47-2.49.33.1.49.36.49.78,0,.29-.08.6-.24.93-.65,1.01-1.68,1.99-3.08,2.95-1.4.96-3.03,1.44-4.88,1.44-2.87,0-5.26-.94-7.18-2.83-1.92-1.89-2.88-4.33-2.88-7.32s1.07-5.83,3.22-8.23,4.49-3.59,7.03-3.59c1.43,0,2.7.24,3.81.73s1.94,1.12,2.49,1.88c.55.77.96,1.51,1.22,2.25s.39,1.44.39,2.12c0,1.43-.41,2.17-1.22,2.2-1.86.16-5.88.31-12.06.44ZM305.81,85.36c3.65,0,6.02-.06,7.13-.2.59,0,.88-.33.88-.98,0-1.07-.29-2.13-.88-3.17-.59-1.04-1.46-1.56-2.64-1.56-.81,0-1.54.26-2.17.78-.63.52-1.11,1.15-1.42,1.88-.31.73-.54,1.39-.68,1.98s-.22,1.01-.22,1.27Z" fill="#fbbf24"/><path d="M323.2,71.93c0-1.17-.1-1.99-.29-2.44-.26-.59-1.25-.88-2.98-.88-.03,0-.06-.11-.07-.34-.02-.23-.02-.46,0-.68.02-.23.06-.36.12-.39,3.38-.33,6.1-.96,8.15-1.9.13,0,.27.09.42.27.15.18.22.35.22.51-.33,1.5-.49,3.03-.49,4.59v22.17c0,2.15.1,3.52.29,4.1.1.26.51.46,1.25.61s1.34.22,1.83.22c.1.16.15.44.15.83s-.05.65-.15.78c-2.6-.2-4.59-.29-5.96-.29s-3.3.1-5.91.29c-.1-.13-.15-.39-.15-.78s.05-.67.15-.83c.46,0,1.06-.07,1.81-.22s1.17-.35,1.27-.61c.23-.68.34-2.05.34-4.1v-20.9Z" fill="#fbbf24"/><path d="M337.36,87.22c-.03,2.96.72,5.16,2.25,6.59,1.53,1.43,3.26,2.15,5.18,2.15,2.15,0,3.97-.83,5.47-2.49.33.1.49.36.49.78,0,.29-.08.6-.24.93-.65,1.01-1.68,1.99-3.08,2.95-1.4.96-3.03,1.44-4.88,1.44-2.87,0-5.26-.94-7.18-2.83-1.92-1.89-2.88-4.33-2.88-7.32s1.07-5.83,3.22-8.23,4.49-3.59,7.03-3.59c1.43,0,2.7.24,3.81.73s1.94,1.12,2.49,1.88c.55.77.96,1.51,1.22,2.25s.39,1.44.39,2.12c0,1.43-.41,2.17-1.22,2.2-1.86.16-5.88.31-12.06.44ZM337.56,85.36c3.65,0,6.02-.06,7.13-.2.59,0,.88-.33.88-.98,0-1.07-.29-2.13-.88-3.17-.59-1.04-1.46-1.56-2.64-1.56-.81,0-1.54.26-2.17.78-.63.52-1.11,1.15-1.42,1.88-.31.73-.54,1.39-.68,1.98s-.22,1.01-.22,1.27Z" fill="#fbbf24"/><path d="M369.94,80.43c0,.78-.23,1.42-.68,1.93-.46.5-1.01.76-1.66.76-.36,0-.69-.1-1-.29s-.67-.51-1.07-.95-.66-.69-.76-.76c-.98-.81-2-1.22-3.08-1.22-1.17,0-2.21.74-3.1,2.22-.89,1.48-1.34,3.23-1.34,5.25,0,2.9.71,5.05,2.15,6.45,1.43,1.4,3.21,2.1,5.32,2.1s3.86-.81,5.32-2.44c.32.1.49.36.49.78,0,.36-.07.67-.2.93-.65.98-1.69,1.95-3.1,2.93s-3.05,1.46-4.91,1.46c-2.83,0-5.22-.95-7.15-2.86s-2.9-4.29-2.9-7.15c0-3.19,1.29-5.99,3.86-8.4,2.57-2.41,5.39-3.61,8.45-3.61,2.12,0,3.68.34,4.69,1.03.46.52.68,1.14.68,1.86Z" fill="#fbbf24"/><path d="M378.98,78.18h5.86c.2,0,.29.2.29.59,0,.59-.29,1.11-.88,1.56h-5.27v12.45c0,2.57.96,3.86,2.88,3.86.94,0,1.9-.39,2.88-1.17.16.16.24.34.24.54,0,.36-.1.63-.29.83-1.66,1.79-3.37,2.69-5.13,2.69-1.6,0-2.94-.48-4.03-1.44-1.09-.96-1.63-2.55-1.63-4.76v-12.99h-3.17c-.16-.03-.24-.21-.24-.54.16-.29.63-.83,1.42-1.61h2v-2.83c.36-.36,1.69-1.76,4-4.2.13-.1.28-.16.44-.2.16-.03.31-.03.44,0,.13.03.2.08.2.15v7.08Z" fill="#fbbf24"/><path d="M1.92,164.59v-9.94h1.05v9.94h-1.05Z" fill="#1f2937"/><path d="M6.59,164.59v-9.94h.87l6.86,8.63h-.45v-8.63h1.04v9.94h-.87l-6.84-8.63h.46v8.63h-1.05Z" fill="#1f2937"/><path d="M21.26,164.68c-.74,0-1.45-.12-2.12-.36s-1.2-.55-1.57-.93l.41-.81c.35.34.82.63,1.41.86.59.23,1.21.35,1.87.35s1.13-.08,1.53-.23.68-.37.87-.63.28-.56.28-.88c0-.39-.11-.7-.33-.94s-.51-.42-.87-.56c-.36-.14-.76-.26-1.19-.36-.44-.1-.87-.22-1.31-.33-.44-.12-.84-.28-1.2-.48-.36-.2-.66-.46-.88-.79-.22-.33-.33-.75-.33-1.29,0-.49.13-.94.39-1.36.26-.41.66-.74,1.2-.99.54-.25,1.23-.38,2.07-.38.56,0,1.11.08,1.66.23.55.16,1.02.37,1.42.65l-.35.84c-.43-.28-.88-.49-1.36-.62-.48-.13-.94-.2-1.38-.2-.6,0-1.09.08-1.48.24-.39.16-.67.38-.86.65s-.28.58-.28.92c0,.39.11.7.33.94.22.24.52.42.88.55.36.13.76.25,1.2.36s.87.22,1.3.34c.43.12.83.28,1.19.48.36.19.66.45.88.77.22.32.33.74.33,1.26,0,.48-.13.93-.4,1.34-.26.41-.67.74-1.21.99-.54.25-1.24.38-2.09.38Z" fill="#1f2937"/><path d="M31.64,164.68c-1.27,0-2.27-.36-3-1.09-.73-.73-1.09-1.81-1.09-3.24v-5.69h1.05v5.65c0,1.17.27,2.04.8,2.6.53.56,1.28.84,2.24.84s1.73-.28,2.26-.84c.53-.56.79-1.42.79-2.6v-5.65h1.02v5.69c0,1.43-.36,2.51-1.09,3.24-.72.73-1.72,1.09-2.99,1.09Z" fill="#1f2937"/><path d="M39.27,164.59v-9.94h3.72c1.26,0,2.25.3,2.98.9.72.6,1.09,1.44,1.09,2.51,0,.7-.16,1.3-.49,1.81-.33.51-.79.89-1.4,1.16-.61.27-1.33.41-2.17.41h-3.14l.47-.48v3.64h-1.05ZM40.32,161.04l-.47-.5h3.11c.99,0,1.75-.22,2.27-.65.52-.44.77-1.05.77-1.83s-.26-1.41-.77-1.85c-.52-.44-1.27-.65-2.27-.65h-3.11l.47-.5v5.98ZM46.05,164.59l-2.56-3.61h1.14l2.57,3.61h-1.15Z" fill="#1f2937"/><path d="M48.32,164.59l4.54-9.94h1.04l4.54,9.94h-1.11l-4.17-9.33h.43l-4.17,9.33h-1.09ZM50.11,161.94l.31-.85h5.78l.31.85h-6.4Z" fill="#1f2937"/><path d="M60.48,164.59v-9.94h.87l6.86,8.63h-.45v-8.63h1.04v9.94h-.87l-6.84-8.63h.46v8.63h-1.05Z" fill="#1f2937"/><path d="M76.72,164.68c-.75,0-1.44-.12-2.07-.38s-1.18-.6-1.65-1.06c-.46-.45-.83-.99-1.09-1.6-.26-.62-.39-1.29-.39-2.02s.13-1.4.39-2.02c.26-.62.62-1.15,1.09-1.6.47-.46,1.02-.81,1.65-1.06.63-.25,1.33-.38,2.07-.38s1.4.12,2.03.36c.63.24,1.17.6,1.6,1.09l-.67.67c-.41-.42-.86-.72-1.35-.9s-1.02-.28-1.59-.28c-.6,0-1.15.1-1.66.3-.51.2-.96.49-1.33.87-.38.37-.67.81-.89,1.31s-.32,1.04-.32,1.64.11,1.14.32,1.64.51.93.89,1.31c.38.37.82.66,1.33.87.51.2,1.07.3,1.66.3s1.1-.09,1.59-.28c.49-.19.94-.49,1.35-.91l.67.67c-.44.48-.97.85-1.6,1.09-.63.25-1.32.37-2.04.37Z" fill="#1f2937"/><path d="M82.86,164.59v-9.94h6.82v.91h-5.76v8.12h5.98v.91h-7.03ZM83.79,159.99v-.9h5.25v.9h-5.25Z" fill="#1f2937"/><path d="M99.59,164.68c-.74,0-1.45-.12-2.12-.36s-1.2-.55-1.57-.93l.41-.81c.35.34.82.63,1.41.86.59.23,1.21.35,1.87.35s1.13-.08,1.53-.23.68-.37.87-.63.28-.56.28-.88c0-.39-.11-.7-.33-.94s-.51-.42-.87-.56c-.36-.14-.76-.26-1.19-.36-.44-.1-.87-.22-1.31-.33-.44-.12-.84-.28-1.2-.48-.36-.2-.66-.46-.88-.79-.22-.33-.33-.75-.33-1.29,0-.49.13-.94.39-1.36.26-.41.66-.74,1.2-.99.54-.25,1.23-.38,2.07-.38.56,0,1.11.08,1.66.23.55.16,1.02.37,1.42.65l-.35.84c-.43-.28-.88-.49-1.36-.62-.48-.13-.94-.2-1.38-.2-.6,0-1.09.08-1.48.24-.39.16-.67.38-.86.65s-.28.58-.28.92c0,.39.11.7.33.94.22.24.52.42.88.55.36.13.76.25,1.2.36s.87.22,1.3.34c.43.12.83.28,1.19.48.36.19.66.45.88.77.22.32.33.74.33,1.26,0,.48-.13.93-.4,1.34-.26.41-.67.74-1.21.99-.54.25-1.24.38-2.09.38Z" fill="#1f2937"/><path d="M110.31,164.68c-.75,0-1.44-.12-2.08-.38s-1.19-.61-1.66-1.07c-.47-.46-.83-.99-1.09-1.6-.26-.61-.39-1.28-.39-2.01s.13-1.4.39-2.01c.26-.61.62-1.15,1.09-1.6.47-.46,1.02-.81,1.65-1.07.63-.25,1.33-.38,2.09-.38s1.44.13,2.07.38c.63.25,1.19.6,1.65,1.06.47.45.83.99,1.09,1.6.26.62.39,1.29.39,2.02s-.13,1.4-.39,2.02c-.26.62-.62,1.15-1.09,1.6-.47.46-1.02.81-1.65,1.06s-1.33.38-2.07.38ZM110.31,163.74c.6,0,1.15-.1,1.65-.3.51-.2.95-.49,1.32-.87s.67-.81.87-1.31c.21-.5.31-1.04.31-1.64s-.1-1.14-.31-1.64c-.21-.5-.5-.93-.87-1.31s-.81-.66-1.32-.87c-.51-.2-1.06-.3-1.65-.3s-1.15.1-1.66.3c-.51.2-.95.49-1.33.87s-.67.81-.88,1.31-.32,1.04-.32,1.64.11,1.13.32,1.63.51.94.88,1.31.82.66,1.33.87c.51.2,1.06.3,1.66.3Z" fill="#1f2937"/><path d="M118.26,164.59v-9.94h1.05v9.03h5.57v.91h-6.62Z" fill="#1f2937"/><path d="M130.83,164.68c-1.27,0-2.27-.36-3-1.09-.73-.73-1.09-1.81-1.09-3.24v-5.69h1.05v5.65c0,1.17.27,2.04.8,2.6.53.56,1.28.84,2.24.84s1.73-.28,2.26-.84c.53-.56.79-1.42.79-2.6v-5.65h1.02v5.69c0,1.43-.36,2.51-1.09,3.24-.72.73-1.72,1.09-2.99,1.09Z" fill="#1f2937"/><path d="M140.42,164.59v-9.03h-3.49v-.91h8.04v.91h-3.49v9.03h-1.05Z" fill="#1f2937"/><path d="M147.27,164.59v-9.94h1.05v9.94h-1.05Z" fill="#1f2937"/><path d="M156.53,164.68c-.75,0-1.44-.12-2.08-.38s-1.19-.61-1.66-1.07c-.47-.46-.83-.99-1.09-1.6-.26-.61-.39-1.28-.39-2.01s.13-1.4.39-2.01c.26-.61.62-1.15,1.09-1.6.47-.46,1.02-.81,1.65-1.07.63-.25,1.33-.38,2.09-.38s1.44.13,2.07.38c.63.25,1.19.6,1.65,1.06.47.45.83.99,1.09,1.6.26.62.39,1.29.39,2.02s-.13,1.4-.39,2.02c-.26.62-.62,1.15-1.09,1.6-.47.46-1.02.81-1.65,1.06s-1.33.38-2.07.38ZM156.53,163.74c.6,0,1.15-.1,1.65-.3.51-.2.95-.49,1.32-.87s.67-.81.87-1.31c.21-.5.31-1.04.31-1.64s-.1-1.14-.31-1.64c-.21-.5-.5-.93-.87-1.31s-.81-.66-1.32-.87c-.51-.2-1.06-.3-1.65-.3s-1.15.1-1.66.3c-.51.2-.95.49-1.33.87s-.67.81-.88,1.31-.32,1.04-.32,1.64.11,1.13.32,1.63.51.94.88,1.31.82.66,1.33.87c.51.2,1.06.3,1.66.3Z" fill="#1f2937"/><path d="M164.72,164.59v-9.94h.87l6.86,8.63h-.45v-8.63h1.04v9.94h-.87l-6.84-8.63h.46v8.63h-1.05Z" fill="#1f2937"/><path d="M179.63,164.68c-.74,0-1.45-.12-2.12-.36s-1.2-.55-1.57-.93l.41-.81c.35.34.82.63,1.41.86.59.23,1.21.35,1.87.35s1.13-.08,1.53-.23.68-.37.87-.63.28-.56.28-.88c0-.39-.11-.7-.33-.94s-.51-.42-.87-.56c-.36-.14-.76-.26-1.19-.36-.44-.1-.87-.22-1.31-.33-.44-.12-.84-.28-1.2-.48-.36-.2-.66-.46-.88-.79-.22-.33-.33-.75-.33-1.29,0-.49.13-.94.39-1.36.26-.41.66-.74,1.2-.99.54-.25,1.23-.38,2.07-.38.56,0,1.11.08,1.66.23.55.16,1.02.37,1.42.65l-.35.84c-.43-.28-.88-.49-1.36-.62-.48-.13-.94-.2-1.38-.2-.6,0-1.09.08-1.48.24-.39.16-.67.38-.86.65s-.28.58-.28.92c0,.39.11.7.33.94.22.24.52.42.88.55.36.13.76.25,1.2.36s.87.22,1.3.34c.43.12.83.28,1.19.48.36.19.66.45.88.77.22.32.33.74.33,1.26,0,.48-.13.93-.4,1.34-.26.41-.67.74-1.21.99-.54.25-1.24.38-2.09.38Z" fill="#1f2937"/><path d="M190.14,164.59v-9.94h6.82v.91h-5.76v9.03h-1.05ZM191.08,160.37v-.91h5.25v.91h-5.25Z" fill="#1f2937"/><path d="M203.51,164.68c-.75,0-1.44-.12-2.08-.38s-1.19-.61-1.66-1.07c-.47-.46-.83-.99-1.09-1.6-.26-.61-.39-1.28-.39-2.01s.13-1.4.39-2.01c.26-.61.62-1.15,1.09-1.6.47-.46,1.02-.81,1.65-1.07.63-.25,1.33-.38,2.09-.38s1.44.13,2.07.38c.63.25,1.19.6,1.65,1.06.47.45.83.99,1.09,1.6.26.62.39,1.29.39,2.02s-.13,1.4-.39,2.02c-.26.62-.62,1.15-1.09,1.6-.47.46-1.02.81-1.65,1.06s-1.33.38-2.07.38ZM203.51,163.74c.6,0,1.15-.1,1.65-.3.51-.2.95-.49,1.32-.87s.67-.81.87-1.31c.21-.5.31-1.04.31-1.64s-.1-1.14-.31-1.64c-.21-.5-.5-.93-.87-1.31s-.81-.66-1.32-.87c-.51-.2-1.06-.3-1.65-.3s-1.15.1-1.66.3c-.51.2-.95.49-1.33.87s-.67.81-.88,1.31-.32,1.04-.32,1.64.11,1.13.32,1.63.51.94.88,1.31.82.66,1.33.87c.51.2,1.06.3,1.66.3Z" fill="#1f2937"/><path d="M211.25,164.59v-9.94h3.72c1.26,0,2.25.3,2.98.9.72.6,1.09,1.44,1.09,2.51,0,.7-.16,1.3-.49,1.81-.33.51-.79.89-1.4,1.16-.61.27-1.33.41-2.17.41h-3.14l.47-.48v3.64h-1.05ZM212.3,161.04l-.47-.5h3.11c.99,0,1.75-.22,2.27-.65.52-.44.77-1.05.77-1.83s-.26-1.41-.77-1.85c-.52-.44-1.27-.65-2.27-.65h-3.11l.47-.5v5.98ZM218.04,164.59l-2.56-3.61h1.14l2.57,3.61h-1.15Z" fill="#1f2937"/><path d="M230.55,164.68c-.75,0-1.44-.12-2.07-.38s-1.18-.6-1.65-1.06c-.46-.45-.83-.99-1.09-1.6-.26-.62-.39-1.29-.39-2.02s.13-1.4.39-2.02c.26-.62.62-1.15,1.09-1.6.47-.46,1.02-.81,1.65-1.06.63-.25,1.33-.38,2.07-.38s1.4.12,2.03.36c.63.24,1.17.6,1.6,1.09l-.67.67c-.41-.42-.86-.72-1.35-.9s-1.02-.28-1.59-.28c-.6,0-1.15.1-1.66.3-.51.2-.96.49-1.33.87-.38.37-.67.81-.89,1.31s-.32,1.04-.32,1.64.11,1.14.32,1.64.51.93.89,1.31c.38.37.82.66,1.33.87.51.2,1.07.3,1.66.3s1.1-.09,1.59-.28c.49-.19.94-.49,1.35-.91l.67.67c-.44.48-.97.85-1.6,1.09-.63.25-1.32.37-2.04.37Z" fill="#1f2937"/><path d="M236.8,164.59v-9.94h1.05v9.94h-1.05ZM237.74,160.01v-.92h6.43v.92h-6.43ZM244.07,164.59v-9.94h1.04v9.94h-1.04Z" fill="#1f2937"/><path d="M247.25,164.59l4.54-9.94h1.04l4.54,9.94h-1.11l-4.17-9.33h.43l-4.17,9.33h-1.09ZM249.04,161.94l.31-.85h5.78l.31.85h-6.4Z" fill="#1f2937"/><path d="M259.52,164.59v-9.94h3.72c1.26,0,2.25.3,2.98.9.72.6,1.09,1.44,1.09,2.51,0,.7-.16,1.3-.49,1.81-.33.51-.79.89-1.4,1.16-.61.27-1.33.41-2.17.41h-3.14l.47-.48v3.64h-1.05ZM260.57,161.04l-.47-.5h3.11c.99,0,1.75-.22,2.27-.65.52-.44.77-1.05.77-1.83s-.26-1.41-.77-1.85c-.52-.44-1.27-.65-2.27-.65h-3.11l.47-.5v5.98ZM266.31,164.59l-2.56-3.61h1.14l2.57,3.61h-1.15Z" fill="#1f2937"/><path d="M272.07,164.59v-9.03h-3.49v-.91h8.04v.91h-3.49v9.03h-1.05Z" fill="#1f2937"/><path d="M278.79,164.59v-9.94h6.82v.91h-5.76v8.12h5.98v.91h-7.03ZM279.72,159.99v-.9h5.25v.9h-5.25Z" fill="#1f2937"/><path d="M288.79,164.59v-9.94h3.72c1.26,0,2.25.3,2.98.9.72.6,1.09,1.44,1.09,2.51,0,.7-.16,1.3-.49,1.81-.33.51-.79.89-1.4,1.16-.61.27-1.33.41-2.17.41h-3.14l.47-.48v3.64h-1.05ZM289.84,161.04l-.47-.5h3.11c.99,0,1.75-.22,2.27-.65.52-.44.77-1.05.77-1.83s-.26-1.41-.77-1.85c-.52-.44-1.27-.65-2.27-.65h-3.11l.47-.5v5.98ZM295.57,164.59l-2.56-3.61h1.14l2.57,3.61h-1.15Z" fill="#1f2937"/><path d="M306.51,164.68c-.74,0-1.45-.12-2.12-.36s-1.2-.55-1.57-.93l.41-.81c.35.34.82.63,1.41.86.59.23,1.21.35,1.87.35s1.13-.08,1.53-.23.68-.37.87-.63.28-.56.28-.88c0-.39-.11-.7-.33-.94s-.51-.42-.87-.56c-.36-.14-.76-.26-1.19-.36-.44-.1-.87-.22-1.31-.33-.44-.12-.84-.28-1.2-.48-.36-.2-.66-.46-.88-.79-.22-.33-.33-.75-.33-1.29,0-.49.13-.94.39-1.36.26-.41.66-.74,1.2-.99.54-.25,1.23-.38,2.07-.38.56,0,1.11.08,1.66.23.55.16,1.02.37,1.42.65l-.35.84c-.43-.28-.88-.49-1.36-.62-.48-.13-.94-.2-1.38-.2-.6,0-1.09.08-1.48.24-.39.16-.67.38-.86.65s-.28.58-.28.92c0,.39.11.7.33.94.22.24.52.42.88.55.36.13.76.25,1.2.36s.87.22,1.3.34c.43.12.83.28,1.19.48.36.19.66.45.88.77.22.32.33.74.33,1.26,0,.48-.13.93-.4,1.34-.26.41-.67.74-1.21.99-.54.25-1.24.38-2.09.38Z" fill="#1f2937"/><path d="M317.31,164.68c-.75,0-1.44-.12-2.07-.38s-1.18-.6-1.65-1.06c-.46-.45-.83-.99-1.09-1.6-.26-.62-.39-1.29-.39-2.02s.13-1.4.39-2.02c.26-.62.62-1.15,1.09-1.6.47-.46,1.02-.81,1.65-1.06.63-.25,1.33-.38,2.07-.38s1.4.12,2.03.36c.63.24,1.17.6,1.6,1.09l-.67.67c-.41-.42-.86-.72-1.35-.9s-1.02-.28-1.59-.28c-.6,0-1.15.1-1.66.3-.51.2-.96.49-1.33.87-.38.37-.67.81-.89,1.31s-.32,1.04-.32,1.64.11,1.14.32,1.64.51.93.89,1.31c.38.37.82.66,1.33.87.51.2,1.07.3,1.66.3s1.1-.09,1.59-.28c.49-.19.94-.49,1.35-.91l.67.67c-.44.48-.97.85-1.6,1.09-.63.25-1.32.37-2.04.37Z" fill="#1f2937"/><path d="M323.56,164.59v-9.94h1.05v9.94h-1.05ZM324.5,160.01v-.92h6.43v.92h-6.43ZM330.83,164.59v-9.94h1.04v9.94h-1.04Z" fill="#1f2937"/><path d="M339.95,164.68c-.75,0-1.44-.12-2.08-.38s-1.19-.61-1.66-1.07c-.47-.46-.83-.99-1.09-1.6-.26-.61-.39-1.28-.39-2.01s.13-1.4.39-2.01c.26-.61.62-1.15,1.09-1.6.47-.46,1.02-.81,1.65-1.07.63-.25,1.33-.38,2.09-.38s1.44.13,2.07.38c.63.25,1.19.6,1.65,1.06.47.45.83.99,1.09,1.6.26.62.39,1.29.39,2.02s-.13,1.4-.39,2.02c-.26.62-.62,1.15-1.09,1.6-.47.46-1.02.81-1.65,1.06s-1.33.38-2.07.38ZM339.95,163.74c.6,0,1.15-.1,1.65-.3.51-.2.95-.49,1.32-.87s.67-.81.87-1.31c.21-.5.31-1.04.31-1.64s-.1-1.14-.31-1.64c-.21-.5-.5-.93-.87-1.31s-.81-.66-1.32-.87c-.51-.2-1.06-.3-1.65-.3s-1.15.1-1.66.3c-.51.2-.95.49-1.33.87s-.67.81-.88,1.31-.32,1.04-.32,1.64.11,1.13.32,1.63.51.94.88,1.31.82.66,1.33.87c.51.2,1.06.3,1.66.3Z" fill="#1f2937"/><path d="M352.36,164.68c-.75,0-1.44-.12-2.08-.38s-1.19-.61-1.66-1.07c-.47-.46-.83-.99-1.09-1.6-.26-.61-.39-1.28-.39-2.01s.13-1.4.39-2.01c.26-.61.62-1.15,1.09-1.6.47-.46,1.02-.81,1.65-1.07.63-.25,1.33-.38,2.09-.38s1.44.13,2.07.38c.63.25,1.19.6,1.65,1.06.47.45.83.99,1.09,1.6.26.62.39,1.29.39,2.02s-.13,1.4-.39,2.02c-.26.62-.62,1.15-1.09,1.6-.47.46-1.02.81-1.65,1.06s-1.33.38-2.07.38ZM352.36,163.74c.6,0,1.15-.1,1.65-.3.51-.2.95-.49,1.32-.87s.67-.81.87-1.31c.21-.5.31-1.04.31-1.64s-.1-1.14-.31-1.64c-.21-.5-.5-.93-.87-1.31s-.81-.66-1.32-.87c-.51-.2-1.06-.3-1.65-.3s-1.15.1-1.66.3c-.51.2-.95.49-1.33.87s-.67.81-.88,1.31-.32,1.04-.32,1.64.11,1.13.32,1.63.51.94.88,1.31.82.66,1.33.87c.51.2,1.06.3,1.66.3Z" fill="#1f2937"/><path d="M360.42,164.59v-9.94h1.05v9.03h5.57v.91h-6.62Z" fill="#1f2937"/><path d="M371.91,164.68c-.74,0-1.45-.12-2.12-.36s-1.2-.55-1.57-.93l.41-.81c.35.34.82.63,1.41.86.59.23,1.21.35,1.87.35s1.13-.08,1.53-.23.68-.37.87-.63.28-.56.28-.88c0-.39-.11-.7-.33-.94s-.51-.42-.87-.56c-.36-.14-.76-.26-1.19-.36-.44-.1-.87-.22-1.31-.33-.44-.12-.84-.28-1.2-.48-.36-.2-.66-.46-.88-.79-.22-.33-.33-.75-.33-1.29,0-.49.13-.94.39-1.36.26-.41.66-.74,1.2-.99.54-.25,1.23-.38,2.07-.38.56,0,1.11.08,1.66.23.55.16,1.02.37,1.42.65l-.35.84c-.43-.28-.88-.49-1.36-.62-.48-.13-.94-.2-1.38-.2-.6,0-1.09.08-1.48.24-.39.16-.67.38-.86.65s-.28.58-.28.92c0,.39.11.7.33.94.22.24.52.42.88.55.36.13.76.25,1.2.36s.87.22,1.3.34c.43.12.83.28,1.19.48.36.19.66.45.88.77.22.32.33.74.33,1.26,0,.48-.13.93-.4,1.34-.26.41-.67.74-1.21.99-.54.25-1.24.38-2.09.38Z" fill="#1f2937"/><path d="M33.39,71.5c-.08.24-.11.49-.1.73.35,6.6,20.21,10.53,17.78,14.98-2.43,4.46-29.87,18.88-29.87,18.88-8.35-4.38-14.02-11.22-17.65-17.12-.9-1.47-1.67-2.87-2.33-4.17-2.17-4.27-1.38-9.35,1.93-12.89l19.46-20.7c1-1.06,2.66-1.15,3.77-.2l4.71,4.01,19.69-20.01c1.22-1.21,3.18-1.22,4.43-.04l17.27,16.5,2.67-2.15c.53-.42,1.3-.37,1.76.13l11.98,13.06c-23.57-3.95-53.65,2.61-55.5,8.99Z" fill="#0f766e"/><path d="M50.89,73.49l.03.06c.32.81,1.02,1.41,1.87,1.61,4.79,1.17,20.73,5.83,20.41,15.96-.38,11.92-17.02,24.78-17.02,24.78,0,0,36.31,2.57,48.62-37.26.36-1.17-.07-2.45-1.06-3.18-5.59-4.17-25.25-16.41-51.38-5.46-1.35.57-2.01,2.12-1.46,3.48Z" fill="#0f766e"/><path d="M88.89,62.51c-23.57-3.95-53.65,2.61-55.5,8.99-14.42,5.59-25.96,14.33-29.84,17.47-.9-1.47-1.67-2.87-2.33-4.17-2.17-4.27-1.38-9.35,1.93-12.89l19.46-20.7c1-1.06,2.66-1.15,3.77-.2l4.71,4.01,19.69-20.01c1.22-1.21,3.18-1.22,4.43-.04l17.27,16.5,2.67-2.15c.53-.42,1.3-.37,1.76.13l11.98,13.06Z" fill="url(#linear-gradient)"/><path d="M190.07,125.19c-3.58,0-6.49,2.91-6.49,6.49s2.91,6.49,6.49,6.49,6.49-2.91,6.49-6.49-2.91-6.49-6.49-6.49ZM190.07,137.17c-3.03,0-5.49-2.46-5.49-5.49s2.46-5.49,5.49-5.49,5.49,2.46,5.49,5.49-2.46,5.49-5.49,5.49Z" fill="#fbbf24"/><path d="M189.76,123.71c.28,0,.5-.22.5-.5v-4.92c0-.28-.22-.5-.5-.5s-.5.22-.5.5v4.92c0,.28.22.5.5.5Z" fill="#fbbf24"/><path d="M183.77,126.04c.1.1.23.15.35.15s.26-.05.35-.15c.2-.2.2-.51,0-.71l-3.48-3.48c-.2-.2-.51-.2-.71,0s-.2.51,0,.71l3.48,3.48Z" fill="#fbbf24"/><path d="M182.38,131.42c0-.28-.22-.5-.5-.5h-4.92c-.28,0-.5.22-.5.5s.22.5.5.5h4.92c.28,0,.5-.22.5-.5Z" fill="#fbbf24"/><path d="M184,136.7l-3.48,3.48c-.2.2-.2.51,0,.71.1.1.23.15.35.15s.26-.05.35-.15l3.48-3.48c.2-.2.2-.51,0-.71s-.51-.2-.71,0Z" fill="#fbbf24"/><path d="M190.08,138.79c-.28,0-.5.22-.5.5v4.92c0,.28.22.5.5.5s.5-.22.5-.5v-4.92c0-.28-.22-.5-.5-.5Z" fill="#fbbf24"/><path d="M196.08,136.47c-.2-.2-.51-.2-.71,0s-.2.51,0,.71l3.48,3.48c.1.1.23.15.35.15s.26-.05.35-.15c.2-.2.2-.51,0-.71l-3.48-3.48Z" fill="#fbbf24"/><path d="M202.88,130.59h-4.92c-.28,0-.5.22-.5.5s.22.5.5.5h4.92c.28,0,.5-.22.5-.5s-.22-.5-.5-.5Z" fill="#fbbf24"/><path d="M195.49,125.95c.13,0,.26-.05.35-.15l3.48-3.48c.2-.2.2-.51,0-.71s-.51-.2-.71,0l-3.48,3.48c-.2.2-.2.51,0,.71.1.1.23.15.35.15Z" fill="#fbbf24"/><rect x=".43" y="131.84" width="165.06" height="1" fill="#fbbf24"/><rect x="214.56" y="131.84" width="165.06" height="1" fill="#fbbf24"/><path d="M103.76,53.47c0,.59-.01,1.18-.03,1.76-3.1-26.43-24.66-46.9-50.79-46.9S6.55,27.58,2.48,52.84C2.79,23.59,25.34,0,53.11,0s50.65,23.93,50.65,53.47Z" fill="#fbbf24"/></svg>